<?xml version="1.0" encoding="UTF-8"?>
<svg id="uuid-29f51957-be64-4c75-b72a-5687b73e6aa2" data-name="Layer 2" xmlns="http://www.w3.org/2000/svg" viewBox="0 0 45.74 10.4">
  <defs>
    <style>
      .uuid-8163fe1c-75ac-4f14-8619-7a616c10f56e {
        fill: #006635;
      }

      .uuid-e95bd09e-e457-4fc9-b07f-f3bc9a82a6cb {
        fill: #231f20;
      }
    </style>
  </defs>
  <g id="uuid-850030be-dddf-4558-82b3-812c27e4c74e" data-name="Layer 2">
    <g>
      <path class="uuid-e95bd09e-e457-4fc9-b07f-f3bc9a82a6cb" d="m21.62,8.4h-.94V0h.94v3.38h.14c.21-.36.5-.63.86-.82.37-.19.77-.28,1.2-.28.37,0,.72.07,1.04.2.33.14.62.33.87.59.25.26.45.57.6.95s.22.8.22,1.28v.24c0,.49-.07.92-.22,1.3s-.34.69-.59.95c-.25.26-.55.45-.88.58-.34.13-.69.2-1.07.2-.19,0-.39-.02-.59-.07-.2-.04-.39-.11-.57-.2-.18-.09-.35-.2-.5-.34s-.28-.29-.38-.47h-.14v.91Zm1.99-.72c.29,0,.55-.05.79-.15.24-.1.45-.24.63-.43.18-.18.32-.41.42-.67.1-.26.15-.56.15-.89v-.24c0-.32-.05-.61-.15-.87-.1-.26-.24-.48-.42-.67-.18-.19-.39-.33-.64-.44-.24-.1-.51-.16-.79-.16s-.54.05-.78.16c-.24.11-.45.26-.63.45-.18.19-.32.42-.43.69-.1.27-.16.56-.16.88v.14c0,.33.05.63.16.89s.25.5.43.69c.18.19.39.34.63.44.24.1.5.16.78.16Z"/>
      <path class="uuid-e95bd09e-e457-4fc9-b07f-f3bc9a82a6cb" d="m32.95,5.5c0,.5-.08.93-.25,1.31-.16.38-.38.7-.65.96s-.59.46-.95.59c-.36.14-.74.2-1.13.2s-.78-.07-1.14-.2c-.36-.14-.68-.33-.95-.59s-.49-.58-.65-.96c-.16-.38-.25-.82-.25-1.31v-.14c0-.49.08-.92.25-1.3.16-.38.38-.7.66-.97.28-.26.59-.46.95-.6.36-.14.74-.2,1.13-.2s.77.07,1.13.2c.36.14.68.34.95.6s.5.59.66.97c.16.38.25.81.25,1.3v.14Zm-2.99,2.18c.29,0,.55-.05.8-.15.24-.1.46-.25.64-.44s.33-.42.43-.69.16-.57.16-.91v-.14c0-.32-.05-.61-.16-.88-.1-.27-.25-.5-.43-.69s-.4-.34-.65-.45c-.25-.11-.51-.16-.79-.16s-.54.05-.79.16c-.25.11-.46.26-.65.45s-.33.42-.43.69c-.1.27-.16.56-.16.88v.14c0,.34.05.64.16.91s.25.5.43.69.4.34.64.44c.24.1.51.15.8.15Z"/>
      <path class="uuid-e95bd09e-e457-4fc9-b07f-f3bc9a82a6cb" d="m34.7,8.4h-.94V2.45h.94v1.01h.14c.37-.78,1.01-1.18,1.92-1.18.69,0,1.24.21,1.64.64.41.43.61,1.07.61,1.93v3.55h-.94v-3.36c0-.62-.14-1.09-.42-1.4-.28-.31-.66-.47-1.14-.47-.57,0-1.01.19-1.34.58-.32.39-.49.91-.49,1.55v3.1Z"/>
      <path class="uuid-e95bd09e-e457-4fc9-b07f-f3bc9a82a6cb" d="m44.81,7.49h-.14c-.1.18-.22.34-.37.48-.15.14-.31.25-.48.34-.17.09-.35.15-.55.2-.19.04-.38.07-.55.07-.4,0-.77-.07-1.12-.2-.34-.14-.65-.33-.91-.59-.26-.26-.46-.57-.61-.95-.15-.38-.22-.81-.22-1.3v-.19c0-.48.08-.91.23-1.29s.36-.7.61-.96c.26-.26.56-.46.9-.59.34-.14.71-.2,1.09-.2.41,0,.79.09,1.15.27.36.18.63.46.82.83h.14V0h.94v8.4h-.94v-.91Zm-1.99.19c.28,0,.54-.05.78-.16.24-.1.45-.25.63-.44.18-.19.32-.42.43-.69s.16-.57.16-.89v-.14c0-.32-.05-.61-.16-.88-.1-.27-.25-.5-.43-.69-.18-.19-.39-.34-.64-.45-.24-.11-.5-.16-.77-.16s-.54.05-.79.16c-.24.1-.46.25-.64.44-.18.19-.32.42-.42.68-.1.26-.15.56-.15.88v.19c0,.34.05.64.15.9s.24.49.42.68c.18.19.39.33.63.43.24.1.5.15.79.15Z"/>
    </g>
    <rect class="uuid-e95bd09e-e457-4fc9-b07f-f3bc9a82a6cb" x="16.58" y=".1" width=".76" height="10.3"/>
    <path class="uuid-8163fe1c-75ac-4f14-8619-7a616c10f56e" d="m6.99,7.54l-.34.54c-.17.26-.28.38-.5.38s-.35-.18-.35-.36.08-.3.36-.46c.2-.13.27-.19.27-.32,0-.11-.07-.22-.2-.22-.12,0-.21.08-.21.22,0,.09.06.17.18.29l.8.82h-.15l-.73-.75c-.13-.12-.2-.22-.2-.36,0-.16.1-.32.31-.32.17,0,.29.14.29.31,0,.14-.07.22-.31.38-.27.16-.32.26-.32.39,0,.14.12.27.25.27.16,0,.26-.06.44-.34l.29-.48h.11Z"/>
    <g>
      <path class="uuid-8163fe1c-75ac-4f14-8619-7a616c10f56e" d="m1.22,3.85c0,.29.12.51.37.66s.69.25,1.34.3c.7.06,1.23.22,1.59.5.36.28.55.68.55,1.21v.07c0,.29-.06.55-.17.77-.12.23-.28.42-.48.58-.2.16-.45.28-.74.37-.29.08-.61.13-.95.13-.46,0-.86-.06-1.19-.19-.33-.12-.61-.29-.83-.49-.22-.2-.39-.44-.5-.7-.11-.26-.18-.52-.19-.79l.89-.22c.04.46.22.82.53,1.1.31.28.73.41,1.25.41.44,0,.79-.09,1.06-.26.27-.17.4-.41.4-.73,0-.34-.13-.58-.4-.72-.26-.14-.69-.24-1.28-.28-.69-.05-1.22-.21-1.58-.48s-.55-.67-.55-1.19v-.07c0-.28.06-.53.18-.74.12-.21.28-.39.49-.53.2-.14.43-.25.69-.32.26-.07.52-.11.8-.11.39,0,.74.05,1.03.16s.54.25.74.42c.2.17.35.37.46.59s.18.45.21.67l-.89.22c-.04-.38-.19-.68-.46-.9s-.62-.32-1.05-.32c-.17,0-.33.02-.49.05-.16.04-.29.09-.41.16-.12.07-.22.16-.29.27-.07.11-.11.23-.11.38Z"/>
      <path class="uuid-8163fe1c-75ac-4f14-8619-7a616c10f56e" d="m13.2,5.36c0,.5-.08.93-.25,1.31-.16.38-.38.7-.65.96s-.59.46-.95.59c-.36.14-.74.2-1.13.2s-.78-.07-1.14-.2c-.36-.14-.68-.33-.95-.59s-.49-.58-.65-.96c-.16-.38-.25-.82-.25-1.31v-.14c0-.49.08-.92.25-1.3.16-.38.38-.7.66-.97.28-.26.59-.46.95-.6.36-.14.74-.2,1.13-.2s.77.07,1.13.2c.36.14.68.34.95.6s.5.59.66.97c.16.38.25.81.25,1.3v.14Zm-2.99,2.18c.29,0,.55-.05.8-.15.24-.1.46-.25.64-.44s.33-.42.43-.69.16-.57.16-.91v-.14c0-.32-.05-.61-.16-.88-.1-.27-.25-.5-.43-.69s-.4-.34-.65-.45c-.25-.11-.51-.16-.79-.16s-.54.05-.79.16c-.25.11-.46.26-.65.45s-.33.42-.43.69c-.1.27-.16.56-.16.88v.14c0,.34.05.64.16.91s.25.5.43.69.4.34.64.44c.24.1.51.15.8.15Z"/>
    </g>
  </g>
</svg>